<svg width="56" height="56" viewBox="0 0 56 56" fill="none" xmlns="http://www.w3.org/2000/svg">
<g clip-path="url(#clip0_212_2085)">
<path d="M28 55.0959C43.188 55.0959 55.5 42.784 55.5 27.5959C55.5 12.4079 43.188 0.0959473 28 0.0959473C12.812 0.0959473 0.5 12.4079 0.5 27.5959C0.5 42.784 12.812 55.0959 28 55.0959Z" fill="#32BEFA"/>
<path opacity="0.9" d="M22.956 40.2C22.0657 40.2 22.217 39.8632 21.9099 39.0152L19.2894 30.3928L39.456 18.4292" fill="#F0FAFF"/>
<path d="M22.9606 40.2001C23.6481 40.2001 23.9518 39.885 24.3356 39.5126L28.0023 35.9467L23.4281 33.1887" fill="#919191"/>
<path d="M23.4281 33.1888L34.5095 41.3769C35.7745 42.0758 36.6866 41.7138 37.0028 40.2035L41.514 18.9449C41.9757 17.0932 40.8081 16.2533 39.5981 16.8022L13.1088 27.0173C11.3006 27.7426 11.3098 28.7509 12.7788 29.2001L19.577 31.3222L35.3139 21.3935C36.0575 20.9432 36.7393 21.185 36.179 21.6823" fill="white"/>
</g>
<defs>
<clipPath id="clip0_212_2085">
<rect width="55" height="55" fill="white" transform="translate(0.5 0.0959473)"/>
</clipPath>
</defs>
</svg>
