<svg width="55" height="56" viewBox="0 0 55 56" fill="none" xmlns="http://www.w3.org/2000/svg">
<g clip-path="url(#clip0_212_2092)">
<path d="M27.5 55.0959C42.6878 55.0959 55 42.7838 55 27.5959C55 12.4081 42.6878 0.0959473 27.5 0.0959473C12.3122 0.0959473 0 12.4081 0 27.5959C0 42.7838 12.3122 55.0959 27.5 55.0959Z" fill="#8DCF38"/>
<path fill-rule="evenodd" clip-rule="evenodd" d="M38.8666 16.2178C37.3836 14.7338 35.6217 13.5578 33.6823 12.7574C31.743 11.957 29.6645 11.5481 27.5664 11.5543C18.7619 11.5543 11.5958 18.6859 11.5924 27.4516C11.589 30.2424 12.3243 32.9844 13.7236 35.3991L11.4583 43.6376L19.926 41.4261C22.2701 42.6968 24.8943 43.3624 27.5607 43.3626H27.5664C36.371 43.3626 43.5382 36.2298 43.5416 27.4642C43.5473 25.373 43.1369 23.3016 42.3343 21.3707C41.5317 19.4397 40.3529 17.6888 38.8666 16.2178ZM27.5664 40.6768H27.5619C25.1851 40.6777 22.8515 40.0419 20.8037 38.8354L20.319 38.549L15.2934 39.8609L16.634 34.9843L16.3189 34.4847C14.9899 32.3803 14.2862 29.9416 14.2897 27.4527C14.292 20.1664 20.248 14.239 27.5722 14.239C29.315 14.2342 31.0415 14.5742 32.6525 15.2393C34.2634 15.9043 35.7269 16.8814 36.9588 18.1142C38.194 19.3369 39.1735 20.7933 39.8404 22.3983C40.5073 24.0033 40.8482 25.725 40.8432 27.463C40.8409 34.7494 34.8849 40.6768 27.5664 40.6768ZM34.8505 30.7802C34.4506 30.582 32.4889 29.6206 32.1234 29.4877C31.7568 29.3559 31.4909 29.2895 31.2251 29.6871C30.9581 30.0847 30.1938 30.9796 29.9601 31.2454C29.7275 31.509 29.4949 31.5433 29.0961 31.344C28.6962 31.1446 27.4106 30.7252 25.8855 29.3731C24.6996 28.319 23.8986 27.0184 23.6649 26.6197C23.4323 26.2221 23.6408 26.0078 23.8402 25.8096C24.0201 25.632 24.2401 25.3455 24.4395 25.1141C24.6388 24.8815 24.7053 24.7153 24.8382 24.4506C24.9711 24.1859 24.9047 23.9533 24.805 23.7551C24.7053 23.5557 23.9066 21.6009 23.5744 20.8057C23.2501 20.0311 22.9212 20.1354 22.676 20.1228C22.4214 20.1122 22.1666 20.1076 21.9117 20.1091C21.6448 20.1091 21.2128 20.2087 20.8461 20.6063C20.4806 21.004 19.4505 21.9653 19.4505 23.9201C19.4505 25.876 20.8805 27.7644 21.0799 28.0302C21.2793 28.2937 23.894 32.3076 27.8976 34.0275C28.8509 34.4377 29.5934 34.6806 30.1744 34.864C31.13 35.1676 31.9997 35.1241 32.6883 35.0221C33.4549 34.9075 35.0487 34.0607 35.381 33.1337C35.7145 32.2056 35.7145 31.4093 35.6148 31.2443C35.5151 31.0781 35.2481 30.9796 34.8494 30.7802H34.8505Z" fill="white"/>
</g>
<defs>
<clipPath id="clip0_212_2092">
<rect width="55" height="55" fill="white" transform="translate(0 0.0959473)"/>
</clipPath>
</defs>
</svg>
